<svg width="268mm" height="210mm" viewBox="0 0 268 210" id="campus_map"
   xmlns="http://www.w3.org/2000/svg">
  <defs id="defs1">
    <linearGradient id="linearGradient6">
      <stop style="stop-color:#687ba8;stop-opacity:1;" offset="0.44339624" id="stop7" />
      <stop style="stop-color:#004a8b;stop-opacity:1;" offset="1" id="stop6" />
    </linearGradient>
    <style id="style1">
        .cls-grass {
            fill: #c1da9b;
        }

        .cls-icon {
            display: inline;
            fill: #fff;
            isolation: isolate;
        }

        .cls-dirt {
            fill: #d88485;
            isolation: isolate;
        }

        .cls-shadows {
            display: inline;
            fill: #004a8b;
            isolation: isolate;
            stroke-width: 0.5665;
        }

        .cls-buildings {
            display: inline;
            fill: #687ba8;
            isolation: isolate;
        }
    </style>
    <linearGradient
       href="#linearGradient6"
       id="linearGradient7"
       x1="151.37888"
       y1="107.89397"
       x2="151.37888"
       y2="108.41477"
       gradientUnits="userSpaceOnUse"
       gradientTransform="matrix(1,0,0,1.6619265,0,-71.734078)" />
    <linearGradient
       href="#linearGradient6"
       id="linearGradient8"
       gradientUnits="userSpaceOnUse"
       gradientTransform="matrix(0.85596921,0,0,1.6619265,42.348448,-71.751171)"
       x1="151.37888"
       y1="107.89397"
       x2="151.37888"
       y2="108.41477" />
    <linearGradient
       href="#linearGradient6"
       id="linearGradient9"
       gradientUnits="userSpaceOnUse"
       gradientTransform="matrix(0.94243888,0,0,1.6619265,49.888006,-71.748071)"
       x1="151.37888"
       y1="107.89397"
       x2="151.37888"
       y2="108.41477" />
    <linearGradient
       href="#linearGradient6"
       id="linearGradient10"
       gradientUnits="userSpaceOnUse"
       gradientTransform="matrix(1.5885325,0,0,1.6619265,-149.65472,-276.63385)"
       x1="151.37888"
       y1="107.89397"
       x2="151.37888"
       y2="108.41477" />
    <linearGradient
       href="#linearGradient6"
       id="linearGradient11"
       gradientUnits="userSpaceOnUse"
       gradientTransform="matrix(2.8298492,0,0,1.6619265,-284.01879,-277.67046)"
       x1="151.37888"
       y1="107.89397"
       x2="151.37888"
       y2="108.41477" />
    <linearGradient
       href="#linearGradient6"
       id="linearGradient12"
       gradientUnits="userSpaceOnUse"
       gradientTransform="matrix(1.9190526,0,0,1.6619265,-101.12615,-289.27457)"
       x1="151.37888"
       y1="107.89397"
       x2="151.37888"
       y2="108.41477" />
  </defs>
  <g
     id="grass"
     style="display:inline"
     transform="translate(-29.135044)">
    <path
       class="cls-grass"
       d="m 346.63183,22.807054 c 0,0 -7.43478,-3.165553 -11.15478,-3.535553 -5.44,-0.54 -21.64627,3.962922 -38.20627,1.892922 L 304.69,32.4 c 0,0.07 13.06,29.3 13.06,29.3 L 307,94.79 c 0,0 12.63,4.1 15.69,5 l 20.2,-61.31 c 0.98,-3.05 4.22183,-14.532946 3.74183,-15.672946 z"
       id="path4"
       transform="matrix(0.23634192,0.72562355,-0.72562355,0.23634192,196.18508,-179.97853)" />
    <path
       class="cls-grass"
       d="m 368.69,259.92 -7.83,-1.92 12,-39.58 -69.51759,-21.63858 -38.03368,118.1913 c 3.77,1.4 67.51989,21.82505 78.82419,25.5195 0.48,0.15 26.47708,-80.16222 24.55708,-80.57222 z"
       id="path5"
       transform="matrix(0.23634192,0.72562355,-0.72562355,0.23634192,196.18508,-179.97853)" />
    <path
       class="cls-grass"
       d="m 253.97496,311.35982 c 1.31037,-2.68523 19.99772,-53.6366 24.69291,-65.90778 l 8.22918,2.7121 -20.77423,67.09294 c -5.20008,-1.72308 -6.82285,-2.02712 -12.14786,-3.89726 z"
       id="path6"
       transform="matrix(0.23634192,0.72562355,-0.72562355,0.23634192,196.18508,-179.97853)" />
    <path
       class="cls-grass"
       d="m 268.21,176.48 -7.83,24.44 -9.57,-3.26 10,-29.31 -27.38,-8.86 25.81,-79.71 24.56,8.1 L 291.38,65 288.76,20.6 266.93444,14.621265 234.36232,42.03926 c -2.1645,6.558389 -45.03893,137.45148 -78.08549,239.0926 l 92.3408,30.30661 44.68443,-126.54185 z"
       id="path8"
       transform="matrix(0.23634192,0.72562355,-0.72562355,0.23634192,196.18508,-179.97853)" />
    <path
       class="cls-grass"
       d="M 485.21894,21.860628 C 477.91277,20.318179 451.79113,16.963923 450.44673,16.829114 444.72302,16.832035 309.37747,8.471277 280,6.72 c 0,0 -4.05,0.55 -5.95,2 -2.25,1.7 -5.92,4.94 -7.23,6 l -2.32459,4.583972 c 13.54204,1.314639 23.19157,2.785489 37.19881,3.989092 -2.1,-0.06 42.08578,1.966936 42.08578,1.966936 1,0.18 -1.21,12.33 -1.84,14.18 l 2.65,1.24 57.91,17.32 -2.32,7.95 26,9 12.91,-39 34.77,9.52 c 1.30987,-4.100089 2.89,-8.108872 4.73,-12 0.66,-1.56 1.56,-2.34 2.22,-2.43 1.29,-0.19 6.8,1.72 13.33,3.75 5.14,1.6 18.84,5.67 18.84,5.67 l 3.82917,-11.035519 z"
       id="path11"
       transform="matrix(0.23634192,0.72562355,-0.72562355,0.23634192,196.18508,-179.97853)" />
    <polygon
       class="cls-grass"
       points="475.03,128.94 502.52,44.47 527.16,52.31 498.63,136.69 "
       id="polygon13"
       transform="matrix(0.24170357,0.56369228,-0.72384106,0.19121809,193.33812,-97.249724)" />
    <polyline
       class="cls-grass"
       points="290.39 164.01 274.89 158.93 296.86 95.05 309.22 99.39"
       id="polyline13"
       transform="matrix(0.23634192,0.72562355,-0.72562355,0.23634192,196.18508,-179.97853)" />
    <rect
       class="cls-grass"
       x="384.19"
       y="241.25"
       width="18.15"
       height="18.15"
       transform="matrix(-1.2145312e-4,0.76314287,-0.76314287,-1.2145312e-4,298.56888,-135.53763)"
       id="rect13" />
    <rect
       class="cls-grass"
       x="434.51999"
       y="84.779999"
       width="18.15"
       height="18.15"
       transform="matrix(-1.2145312e-4,0.76314287,-0.76314287,-1.2145312e-4,304.60183,-174.43033)"
       id="rect14" />
    <rect
       class="cls-grass"
       x="370.34"
       y="282.97"
       width="18.15"
       height="18.15"
       transform="matrix(-1.2145312e-4,0.76314287,-0.76314287,-1.2145312e-4,296.86126,-125.15758)"
       id="rect15" />
    <rect
       class="cls-grass"
       x="356.98999"
       y="324.69"
       width="18.15"
       height="18.15"
       transform="matrix(-1.2145312e-4,0.76314287,-0.76314287,-1.2145312e-4,295.26958,-114.79123)"
       id="rect16" />
    <rect
       class="cls-grass"
       x="446.45001"
       y="48.18"
       width="18.15"
       height="18.15"
       transform="matrix(-1.2145312e-4,0.76314287,-0.76314287,-1.2145312e-4,306.05209,-183.53067)"
       id="rect17" />
  </g>
  <g
     id="dirt"
     style="display:inline"
     transform="translate(-29.135044)">
    <polygon
       class="cls-dirt"
       points="210.67,164.94 235.88,91.24 225.37,87.95 174.17,243.54 193.42,250.19 219.79,168.03 "
       id="polygon100"
       transform="matrix(0.23634192,0.72562355,-0.72562355,0.23634192,196.18508,-179.97853)" />
    <polygon
       class="cls-dirt"
       points="230.95,162.59 259.52,172.02 250.75,197.66 222.28,187.92 "
       id="polygon101"
       transform="matrix(0.23634192,0.72562355,-0.72562355,0.23634192,196.18508,-179.97853)" />
    <polygon
       class="cls-dirt"
       points="219.34,264.64 237.63,209.75 267.64,219.61 249.58,275.02 "
       id="polygon102"
       transform="matrix(0.23634192,0.72562355,-0.72562355,0.23634192,196.18508,-179.97853)" />
  </g>
  <g
     id="buildings"
     transform="translate(-29.135044)">
    <g
       id="corridor_e_and_f_lower"
       style="display:inline">
      <path
         style="display:inline;fill:#004a8b;fill-opacity:1;stroke:#000000;stroke-width:0;stroke-linejoin:bevel;stroke-opacity:0"
         d="m 97.557869,146.38486 17.136941,-0.10335 0.0291,-15.66011 -1.53754,0.0166 c 0,0 -3.3436,-1.4069 -7.45912,-1.463 -3.68333,-0.11459 -7.459117,1.46026 -7.459117,1.46026 l -0.711104,-6.6e-4 z"
         id="path12" />
      <path
         d="m 97.545686,128.19197 -0.311817,16.1692 17.451961,0.0109 0.0548,-15.78418 c 0,0 -3.1867,-1.94447 -7.11143,-1.92477 -3.45116,-0.23702 -7.22203,1.52988 -7.22203,1.52988 z"
         id="path13"
         class="cls-buildings" />
      <rect
         style="display:inline;opacity:0.340548;fill:url(#linearGradient11);fill-opacity:1;stroke:#000000;stroke-width:0;stroke-linejoin:bevel;stroke-opacity:1"
         id="rect10"
         width="16.16791"
         height="0.7763772"
         x="128.19267"
         y="-98.341103"
         transform="rotate(90)" />
    </g>
    <g
       id="corridor_e_and_f_upper"
       style="display:inline">
      <path
         style="display:inline;fill:#004a8b;fill-opacity:1;stroke:#000000;stroke-width:0;stroke-linejoin:bevel;stroke-opacity:0"
         d="m 96.527521,81.892218 21.633739,1.112534 -0.0661,9.640755 -7.05215,0.132932 2.11644,0.52034 -1.44409,1.625333 -2.49646,0.07016 -0.0409,-2.45554 -12.663564,0.146164 z"
         id="path14" />
      <path
         d="m 96.445588,81.740747 21.763222,-0.04858 -0.0502,9.162723 -4.95207,-0.02841 0.0196,2.52181 -2.40813,-0.01344 -0.0217,-2.519743 -14.365188,0.0062 z"
         id="path15"
         class="cls-buildings" />
      <rect
         style="opacity:0.340548;fill:url(#linearGradient10);fill-opacity:1;stroke:#000000;stroke-width:0;stroke-linejoin:bevel;stroke-opacity:1"
         id="rect9"
         width="9.0758371"
         height="0.7763772"
         x="81.7397"
         y="-97.304466"
         transform="rotate(90)" />
    </g>
    <g
       id="building_f"
       style="display:inline"
       class="cls-hover">
      <path
         style="display:inline;fill:#004a8b;fill-opacity:1;stroke:#000000;stroke-width:0;stroke-linejoin:bevel;stroke-opacity:0"
         d="m 116.82524,92.638214 1.2511,-0.08779 0.0701,-9.541523 12.59341,0.619731 2.1811,7.19199 -2.17343,2.451202 -3.21427,-0.0021 0.0124,27.574546 0.90123,-0.004 0.004,8.60515 -0.39791,-0.002 -0.005,1.19889 0.62528,0.005 0.008,16.22743 2.17041,4.67155 -2.17247,2.44533 -15.25385,-0.008 0.0101,-7.74114 1.2237,-0.006 0.029,-15.60629 6.27559,0.0165 0.0165,-1.21543 h -4.14238 z"
         id="path7" />
      <polygon
         class="cls-shadows"
         points="294.35,203.41 306.56,207.44 311.04,207.69 294.09,202.07 "
         id="polygon183"
         transform="matrix(0.23634192,0.72562355,-0.72562355,0.23634192,196.18508,-179.97853)" />
      <polygon
         class="cls-shadows"
         points="371.86,232.19 351.27,225.47 351.44,226.75 371.86,233.47 "
         id="polygon184"
         transform="matrix(0.23634192,0.72562355,-0.72562355,0.23634192,196.18508,-179.97853)" />
      <path
         d="m 119.06353,81.178507 13.86065,0.0021 -0.002,9.629386 -3.20911,0.0041 -0.005,27.574537 1.09348,0.008 0.0258,8.70127 -0.94154,-0.006 0.006,1.10381 0.95498,0.003 0.002,23.34017 -15.25178,-0.007 0.001,-23.33191 7.57473,-0.0259 10e-4,-1.17822 -4.15892,-0.006 z"
         id="path2"
         class="cls-buildings" />
      <path
         class="cls-icon"
         d="m 329.6818,206.51664 a 6.17,6.17 0 1 0 7.72201,-4.04783 6.17,6.17 0 0 0 -7.72201,4.04783 z m 4.92997,-0.99993 -0.86192,2.76895 1.33674,0.4161 0.71628,-2.3011 1.16487,0.3626 -0.71628,2.3011 2.46341,0.76681 -0.44879,1.44176 -6.23492,-1.9408 1.31071,-4.21072 z"
         id="sign_f"
         style="display:inline"
         transform="matrix(0.23634192,0.72562355,-0.72562355,0.23634192,196.18508,-179.97853)" />
    </g>
    <g
       id="building_e"
       style="display:inline"
       class="cls-hover cls-e">
      <path
         style="display:inline;fill:#004a8b;fill-opacity:1;stroke:#000000;stroke-width:0;stroke-linejoin:bevel;stroke-opacity:0"
         d="m 85.733267,81.326301 -2.257226,2.372982 -0.0345,45.795307 0.666504,1.15176 -0.619731,-0.006 -1.186844,-2.438 -2.183675,2.438 0.02201,23.33872 h 15.234213 l 2.184879,-2.44016 -2.377543,-5.1305 2.354589,-0.0113 0.02089,-15.77578 -3.224609,-0.008 0.0083,-1.20716 1.364258,0.0248 -1.3e-4,-8.61251 -1.379778,-0.003 -0.480444,-28.112048 2.678075,-0.01654 0.01116,-10.792106 z"
         id="path3" />
      <polygon
         class="cls-buildings"
         points="364.16,254.53 372.99,257.41 368.17,272.2 366.83,276.42 337.75,266.95 339.13,262.73 280.73,243.68 285,230.17 331.3,245.28 331.81,243.98 342.44,247.47 342.02,248.77 343.52,249.26 343.94,247.95 "
         id="polygon198"
         style="stroke-width:0.999794"
         transform="matrix(0.23643944,0.72562355,-0.72592295,0.23634192,196.23207,-179.97853)" />
      <path
         class="cls-icon"
         d="m 90.975973,109.1077 a 4.7085915,4.7085915 0 1 0 4.682766,4.71909 4.7009601,4.7009601 0 0 0 -4.682766,-4.71909 z m 1.719789,7.20314 -3.502805,-0.0135 0.01925,-4.98329 3.441747,0.0133 -0.0039,1.00734 -2.289414,-0.009 -0.0037,0.96918 1.961258,0.008 -0.0036,0.93865 -1.961259,-0.008 -0.0041,1.05313 2.350463,0.009 z"
         id="sign_e"
         style="display:inline" />
    </g>
    <g
       id="extra_2">
      <polygon
         class="cls-shadows"
         points="210.67,253.61 208.53,260.72 198.41,257.31 196.25,253.61 200.6,250.49 208.51,249.91 "
         id="polygon167"
         transform="matrix(0.23634192,0.72562355,-0.72562355,0.23634192,196.18508,-179.97853)" />
      <polygon
         class="cls-buildings"
         points="206.38,257.02 196.25,253.61 198.44,246.79 208.51,249.91 "
         id="polygon185"
         transform="matrix(0.23634192,0.72562355,-0.72562355,0.23634192,196.18508,-179.97853)" />
    </g>
    <g
       id="extra_1">
      <polygon
         class="cls-shadows"
         points="184.58,249.48 190.48,248.3 192.63,252 190.13,259.92 181.77,257.44 179.61,253.74 "
         id="polygon168"
         transform="matrix(0.23634192,0.72562355,-0.72562355,0.23634192,196.18508,-179.97853)" />
      <polygon
         class="cls-buildings"
         points="187.98,256.22 179.61,253.74 182.42,245.78 190.48,248.3 "
         id="polygon186"
         transform="matrix(0.23634192,0.72562355,-0.72562355,0.23634192,196.18508,-179.97853)" />
    </g>
    <g
       id="building_i"
       style="display:inline"
       class="cls-hover" />
    <g
       id="building_g"
       style="display:inline"
       class="cls-hover">
      <polygon
         class="cls-shadows"
         points="395.29,112.02 393.35,112.07 391.44,116.26 330.56,95.52 328.95,92.54 384.65,93.65 385.46,91.46 395.44,94.72 395.28,95.44 414.76,99.09 417.17,102.37 413.48,113.69 420.5,113.12 422.66,116.82 418.88,128.13 393.6,119.96 391.44,116.26 "
         id="polygon172"
         transform="matrix(0.23634192,0.72562355,-0.72562355,0.23634192,196.18508,-179.97853)" />
      <polygon
         class="cls-buildings"
         points="389.55,113.21 328.95,92.54 335.06,73.77 382.48,89.94 383.25,87.58 393.27,91 393.05,91.69 414.76,99.09 411.22,109.94 420.5,113.12 416.72,124.43 391.44,116.26 393.79,109.21 391.21,108.33 "
         id="polygon191"
         transform="matrix(0.23634192,0.72562355,-0.72562355,0.23634192,196.18508,-179.97853)" />
      <path
         class="cls-icon"
         d="m 214.03019,108.23043 a 4.7085915,4.7085915 0 1 0 4.68715,4.72994 4.7085915,4.7085915 0 0 0 -4.68715,-4.72994 z m 2.29483,7.21457 -0.95392,-0.004 0.002,-0.49603 a 1.8620686,1.8620686 0 0 1 -1.31498,0.5206 2.3428486,2.3428486 0 0 1 -0.92256,-0.18735 2.2894286,2.2894286 0 0 1 -0.76075,-0.53003 2.5870543,2.5870543 0 0 1 -0.51525,-0.81128 2.8541543,2.8541543 0 0 1 -0.17844,-1.0387 2.5488972,2.5488972 0 0 1 0.18756,-0.96835 2.4878458,2.4878458 0 0 1 0.53003,-0.76074 2.4344258,2.4344258 0 0 1 0.76556,-0.53073 2.4954772,2.4954772 0 0 1 0.98535,-0.19394 2.45732,2.45732 0 0 1 1.21206,0.2955 1.8315429,1.8315429 0 0 1 0.75967,0.7666 l -0.85762,0.63716 a 1.2362914,1.2362914 0 0 0 -0.48605,-0.52115 1.2973429,1.2973429 0 0 0 -0.68596,-0.19391 1.1141886,1.1141886 0 0 0 -0.52712,0.11968 1.2515543,1.2515543 0 0 0 -0.40592,0.31868 1.6178629,1.6178629 45 0 0 -0.26165,0.4796 1.8239115,1.8239115 0 0 0 -0.0942,0.58719 1.8697,1.8697 0 0 0 0.0965,0.5957 1.5262857,1.5262857 0 0 0 0.27257,0.47439 1.2515543,1.2515543 0 0 0 0.95198,0.43169 1.5720743,1.5720743 45 0 0 1.21623,-0.62026 l 6.9e-4,-0.15262 -0.93102,-0.004 0.004,-0.84708 1.9231,0.009 z"
         id="sign_g"
         style="display:inline" />
    </g>
    <g
       id="building_m"
       style="display:inline"
       class="cls-hover">
      <polygon
         class="cls-shadows"
         points="381.99,79.52 389.83,65.54 354.99,53.86 353.16,50.27 360.15,38.02 389.64,48.15 390.31,46.45 409.05,52.58 408.47,54.28 428.09,58.21 430.36,61.95 424.68,79.39 431.63,78.66 433.79,82.36 430.18,93.45 401.14,83.99 399.73,88.34 383.89,82.94 "
         id="polygon173"
         transform="matrix(0.23634192,0.72562355,-0.72562355,0.23634192,196.18508,-179.97853)" />
      <polygon
         class="cls-buildings"
         points="397.57,84.63 381.99,79.52 387.68,61.83 353.16,50.26 358.32,34.42 387.51,44.38 388.17,42.68 406.83,49.05 406.24,50.76 428.09,58.21 422.4,75.64 431.64,78.65 428.02,89.74 398.99,80.28 "
         id="polygon192"
         transform="matrix(0.23634192,0.72562355,-0.72562355,0.23634192,196.18508,-179.97853)" />
      <path
         class="cls-icon"
         d="m 243.65225,121.76478 a 4.7085915,4.7085915 0 1 0 4.79342,4.62221 4.7085915,4.7085915 0 0 0 -4.79342,-4.62221 z m 2.67182,7.15668 -1.14453,0.0208 -0.0542,-2.98338 -1.04408,2.18666 -0.61805,0.0112 -1.12289,-2.14727 0.0542,2.9834 -1.14452,0.0208 -0.0909,-4.99776 1.24372,-0.0226 1.34444,2.57829 1.24982,-2.62546 1.23608,-0.0225 z"
         id="sign_m"
         style="display:inline" />
    </g>
    <g
       id="extra_planthouse">
      <polygon
         class="cls-shadows"
         points="353.35,60.31 373.16,63.79 375.32,67.49 371.72,78.79 349.42,71.19 347.44,67.79 "
         id="polygon174"
         transform="matrix(0.23634192,0.72562355,-0.72562355,0.23634192,196.18508,-179.97853)" />
      <polygon
         class="cls-buildings"
         points="369.41,74.99 347.44,67.79 351.1,56.58 373,63.73 "
         id="polygon193"
         transform="matrix(0.23634192,0.72562355,-0.72562355,0.23634192,196.18508,-179.97853)" />
    </g>
    <g
       id="building_a"
       style="display:inline"
       class="cls-hover">
      <polygon
         class="cls-shadows"
         points="479.19,116.05 459.19,109.54 457.03,105.83 482.52,37.95 500.36,40.77 502.52,44.47 "
         id="polygon175"
         transform="matrix(0.23634192,0.72562355,-0.72562355,0.23634192,196.18508,-179.97853)" />
      <rect
         class="cls-buildings"
         x="441.04999"
         y="62.779999"
         width="75.290001"
         height="21.040001"
         transform="matrix(0.76314287,1.2145312e-4,-1.2145312e-4,0.76314287,-109.17491,128.70222)"
         id="rect193" />
      <g
         id="sign_a"
         style="display:inline;isolation:isolate;stroke-width:0.346637"
         transform="matrix(0.76313268,-0.00394526,0.00394526,0.76313268,-108.43741,130.01474)">
        <polygon
           class="cls-icon"
           points="477.98,74.6 479.52,74.6 478.76,72.29 "
           id="polygon201" />
        <path
           class="cls-icon"
           d="m 478.76,67.67 a 6.17,6.17 0 1 0 6.17,6.17 6.17,6.17 0 0 0 -6.17,-6.17 z m 1.52,9.43 -0.51,-1.46 h -2 l -0.5,1.46 h -1.57 l 2.38,-6.53 h 1.36 l 2.38,6.53 z"
           id="path202" />
      </g>
    </g>
    <g
       id="corridor_b_and_d">
      <polygon
         class="cls-shadows"
         points="426.39,261.64 411,257.41 419.47,231.41 434.86,235.64 "
         id="polygon176"
         transform="matrix(0.23634192,0.72562355,-0.72562355,0.23634192,196.18508,-179.97853)" />
      <polygon
         points="424.7,258.88 411.04,254.43 418.87,230.38 432.5,234.93 "
         id="polygon194"
         transform="matrix(0.23634192,0.72562355,-0.72562355,0.23634192,196.18508,-179.97853)"
         class="cls-buildings" />
      <rect
         style="display:inline;opacity:0.340548;fill:url(#linearGradient12);fill-opacity:1;stroke:#000000;stroke-width:0;stroke-linejoin:bevel;stroke-opacity:1"
         id="rect11"
         width="10.964212"
         height="0.7763772"
         x="178.41367"
         y="-109.94522"
         transform="rotate(90)" />
    </g>
    <g
       id="building_b"
       style="display:inline"
       class="cls-hover">
      <polygon
         class="cls-shadows"
         points="406.66,333.76 388.09,327.71 385.93,324.01 411.19,256.84 427.6,259.19 429.76,262.9 "
         id="polygon177"
         transform="matrix(0.23634192,0.72562355,-0.72562355,0.23634192,196.18508,-179.97853)" />
      <rect
         class="cls-buildings"
         x="369.5"
         y="281.82999"
         width="74.540001"
         height="19.540001"
         transform="matrix(0.76314287,1.2145312e-4,-1.2145312e-4,0.76314287,-229.6591,-38.484313)"
         id="rect194" />
      <g
         id="sign_b"
         transform="matrix(0.76313705,0.00297977,-0.00297977,0.76313705,-227.69715,-38.058357)"
         style="display:inline;isolation:isolate;stroke-width:0.346637">
        <path
           class="cls-icon"
           d="m 408.44,290.1 h -1.74 v 1.42 h 1.67 a 0.66,0.66 0 0 0 0.49,-0.19 0.69,0.69 0 0 0 0.19,-0.51 0.8,0.8 0 0 0 -0.17,-0.51 0.56,0.56 0 0 0 -0.44,-0.21 z"
           id="path203" />
        <path
           class="cls-icon"
           d="m 408.62,288.74 a 0.63,0.63 0 0 0 0.19,-0.51 0.66,0.66 0 0 0 -0.17,-0.5 0.57,0.57 0 0 0 -0.41,-0.17 h -1.53 v 1.35 h 1.48 a 0.67,0.67 0 0 0 0.44,-0.17 z"
           id="path204" />
        <path
           class="cls-icon"
           d="m 407.46,283.37 a 6.17,6.17 0 1 0 6.17,6.17 6.17,6.17 0 0 0 -6.17,-6.17 z m 3,8.49 a 1.4,1.4 0 0 1 -0.48,0.52 2.13,2.13 0 0 1 -0.7,0.31 3.43,3.43 0 0 1 -0.86,0.11 h -3.18 v -6.53 h 3.63 a 1.29,1.29 0 0 1 0.62,0.15 1.57,1.57 0 0 1 0.47,0.38 1.73,1.73 0 0 1 0.3,0.53 1.87,1.87 0 0 1 -0.13,1.5 1.49,1.49 0 0 1 -0.71,0.62 1.69,1.69 0 0 1 0.89,0.59 1.73,1.73 0 0 1 0.33,1.09 1.44,1.44 0 0 1 -0.23,0.73 z"
           id="path205" />
      </g>
    </g>
    <g
       id="building_d"
       class="cls-hover">
      <polygon
         class="cls-shadows"
         points="450.95,134.82 478.8,140.9 480.95,144.6 449.48,241.19 419.47,231.41 417.31,227.71 "
         id="polygon178"
         transform="matrix(0.23634192,0.72562355,-0.72562355,0.23634192,196.18508,-179.97853)" />
      <rect
         class="cls-buildings"
         x="397.26001"
         y="168.53"
         width="101.58"
         height="31.559999"
         transform="matrix(0.76314287,1.2145312e-4,-1.2145312e-4,0.76314287,-173.56241,47.992123)"
         id="rect195" />
      <g
         id="sign_d"
         transform="matrix(0.76304955,-0.01193412,0.01193412,0.76304955,-176.24611,52.760695)"
         style="display:inline;isolation:isolate;stroke-width:0.346637">
        <path
           class="cls-icon"
           d="m 449.14,178.13 a 6.17,6.17 0 1 0 6.17,6.17 6.17,6.17 0 0 0 -6.17,-6.17 z m 3,7.51 a 2.85,2.85 0 0 1 -0.66,1 3,3 0 0 1 -1,0.66 3.54,3.54 0 0 1 -1.33,0.24 h -2.44 V 181 h 2.44 a 3.62,3.62 0 0 1 1.41,0.25 3,3 0 0 1 1,0.7 2.86,2.86 0 0 1 0.61,1 3.7,3.7 0 0 1 0.21,1.26 3.82,3.82 0 0 1 -0.21,1.43 z"
           id="path198" />
        <path
           class="cls-icon"
           d="m 450.41,182.89 a 1.34,1.34 0 0 0 -0.54,-0.39 1.85,1.85 0 0 0 -0.72,-0.14 h -0.93 v 3.88 h 0.93 a 1.7,1.7 0 0 0 0.73,-0.15 1.37,1.37 0 0 0 0.54,-0.41 2,2 0 0 0 0.33,-0.61 2.86,2.86 0 0 0 0,-1.57 1.82,1.82 0 0 0 -0.34,-0.61 z"
           id="path199" />
      </g>
    </g>
    <g
       id="building_h"
       class="cls-hover">
      <polygon
         class="cls-shadows"
         points="258.03,84.15 303.11,95.85 305.36,99.68 282.1,171.34 234.65,155.88 232.5,152.18 "
         id="polygon179"
         transform="matrix(0.23634192,0.72562355,-0.72562355,0.23634192,196.18508,-179.97853)" />
      <polygon
         class="cls-buildings"
         points="279.63,167.54 232.39,152.14 255.76,80.42 303.11,95.85 "
         id="polygon195"
         transform="matrix(0.23634192,0.72562355,-0.72562355,0.23634192,196.18508,-179.97853)" />
      <path
         class="cls-icon"
         d="m 169.42759,38.579039 a 4.7085915,4.7085915 0 1 0 4.75734,4.659336 4.7009601,4.7009601 0 0 0 -4.75734,-4.659336 z m 2.2192,7.173731 -1.14465,0.01191 -0.0213,-2.045112 -1.9917,0.02072 0.0213,2.045112 -1.15228,0.01199 -0.0519,-4.983056 1.15229,-0.01199 0.0201,1.930647 1.99169,-0.02073 -0.0201,-1.93065 1.14465,-0.01191 z"
         id="sign_h"
         style="display:inline" />
    </g>
    <g
       id="building_n"
       class="cls-hover">
      <polygon
         class="cls-shadows"
         points="272.75,198.76 278.84,180.05 276.72,176.25 268.21,176.48 260,191.35 262.15,195.05 "
         id="polygon180"
         transform="matrix(0.23634192,0.72562355,-0.72562355,0.23634192,196.18508,-179.97853)" />
      <rect
         class="cls-buildings"
         x="258.59"
         y="178.19"
         width="19.540001"
         height="11.22"
         transform="matrix(0.76314287,1.2145312e-4,-1.2145312e-4,0.76314287,-78.533342,-82.113152)"
         id="rect196" />
      <path
         class="cls-icon"
         d="m 268.26174,177.96554 a 6.17,6.17 0 1 0 6.08758,6.24144 6.17,6.17 0 0 0 -6.08758,-6.24144 z m 2.74967,9.47272 -1.20992,-0.014 -2.95617,-3.77474 -0.0435,3.73974 -1.50989,-0.0176 0.0758,-6.52955 1.1799,0.0138 2.95514,3.86476 0.0445,-3.82977 1.50992,0.0176 z"
         id="sign_n"
         style="display:inline"
         transform="matrix(0.7631062,-0.00748074,0.00748074,0.7631062,-80.054389,-80.357189)" />
    </g>
    <g
       id="building_k"
       style="display:inline"
       class="cls-hover">
      <polygon
         class="cls-shadows"
         points="325.01,39.38 307.69,92.53 290.83,87.04 288.67,83.34 308.15,33.89 322.75,35.61 "
         id="polygon181"
         transform="matrix(0.23634192,0.72562355,-0.72562355,0.23634192,196.18508,-179.97853)" />
      <rect
         class="cls-buildings"
         x="277.70999"
         y="50.57"
         width="55.900002"
         height="17.73"
         transform="matrix(0.76314287,1.2145312e-4,-1.2145312e-4,0.76314287,-7.9528133,10.464844)"
         id="rect197" />
      <path
         class="cls-icon"
         d="m 225.4173,50.914919 a 4.7085915,4.7085915 0 1 0 4.64878,4.76764 4.7085915,4.7085915 0 0 0 -4.64878,-4.76764 z m 1.10721,7.210984 -1.38637,-2.024724 -0.52574,0.535241 -0.0185,1.465114 -1.15225,-0.01454 0.0629,-4.982927 1.15225,0.01454 -0.0272,2.151891 1.85093,-2.128867 1.29724,0.01637 -1.89767,2.204601 1.97213,2.780058 z"
         id="sign_k"
         style="display:inline" />
    </g>
    <g
       id="building_l"
       style="display:inline"
       class="cls-hover">
      <polygon
         class="cls-shadows"
         points="268.42,63.05 266.66,61.28 261.39,66.62 263.14,68.19 258.12,67.46 260.28,71.16 266.72,77.58 269.17,74.9 273.52,79.35 289.83,63.4 291.38,64.96 295.13,53.06 293.9,50.28 295.99,44.02 293.83,40.32 287.81,35.67 289.73,33.66 287.57,29.96 283.14,27.19 242.34,52.52 244.5,56.22 252.14,64.78 256,61.26 257.35,62.77 276.32,44.57 281.7,49.78 279.6,51.96 277.94,50.57 272.53,55.87 274,57.19 "
         id="polygon182"
         transform="matrix(0.23634192,0.72562355,-0.72562355,0.23634192,196.18508,-179.97853)" />
      <polygon
         class="cls-buildings"
         points="258.88,63.21 260.5,64.91 258.12,67.46 264.56,73.88 267.01,71.2 271.36,75.65 287.67,59.7 289.22,61.26 293.26,48.87 291.35,48.24 293.83,40.32 285.65,31.97 287.57,29.96 280.98,23.49 242.34,52.52 250.12,60.95 253.93,57.66 255.18,59.08 274.16,40.87 279.54,46.08 277.42,48.4 275.79,46.87 "
         id="polygon197"
         transform="matrix(0.23634192,0.72562355,-0.72562355,0.23634192,196.18508,-179.97853)" />
      <path
         class="cls-icon"
         d="m 216.99419,28.412558 a 4.7085915,4.7085915 0 1 0 4.80207,4.644446 4.7009601,4.7009601 0 0 0 -4.80207,-4.644446 z m 1.95476,7.173801 -3.56363,0.04219 -0.059,-4.982972 1.14464,-0.01355 0.047,3.968063 2.41899,-0.02864 z"
         id="sign_l"
         style="display:inline" />
    </g>
    <g
       id="building_c"
       style="display:inline"
       class="cls-hover">
      <rect
         class="cls-shadows"
         x="334.89999"
         y="170.78999"
         width="7.4899998"
         height="14.43"
         transform="matrix(0.76314287,1.2145312e-4,-1.2145312e-4,0.76314287,-111.35708,-28.0656)"
         id="rect169" />
      <polygon
         class="cls-shadows"
         points="360.47,119.03 360.48,123.26 358.96,123.68 339.92,182.09 337.26,184.57 338.6,186.92 373.56,198.43 395.49,131.05 394.15,128.12 "
         id="polygon170"
         transform="matrix(0.23634192,0.72562355,-0.72562355,0.23634192,196.18508,-179.97853)" />
      <rect
         class="cls-shadows"
         x="343.89001"
         y="144.86"
         width="6.4099998"
         height="14.43"
         transform="matrix(0.76314287,1.2145312e-4,-1.2145312e-4,0.76314287,-96.989114,-8.2740362)"
         id="rect170" />
      <rect
         class="cls-shadows"
         x="351.87"
         y="119.37"
         width="7.0599999"
         height="14.43"
         transform="matrix(0.76314287,1.2145312e-4,-1.2145312e-4,0.76314287,-82.874652,11.182743)"
         id="rect171" />
      <polygon
         class="cls-shadows"
         points="311.59,177.75 310.4,175.56 334.08,112.23 351.21,114.04 353,117.1 331.15,184.28 "
         id="polygon171"
         transform="matrix(0.23634192,0.72562355,-0.72562355,0.23634192,196.18508,-179.97853)" />
      <rect
         class="cls-buildings"
         x="332.23999"
         y="167.89999"
         width="7.4899998"
         height="14.43"
         transform="matrix(0.76314287,1.2145312e-4,-1.2145312e-4,0.76314287,-107.85983,-28.466296)"
         id="rect187" />
      <rect
         class="cls-buildings"
         x="341.39999"
         y="141.83"
         width="6.4099998"
         height="14.43"
         transform="matrix(0.76314287,1.2145312e-4,-1.2145312e-4,0.76314287,-93.48593,-8.4840305)"
         id="rect188" />
      <rect
         class="cls-buildings"
         x="349.23999"
         y="116.41"
         width="7.0599999"
         height="14.43"
         transform="matrix(0.76314287,1.2145312e-4,-1.2145312e-4,0.76314287,-79.336717,10.833018)"
         id="rect189" />
      <polygon
         class="cls-shadows"
         points="351.04,117.58 350.43,115.31 329.14,180.71 330,182.14 "
         id="polygon189"
         transform="matrix(0.23634192,0.72562355,-0.72562355,0.23634192,196.18508,-179.97853)" />
      <polygon
         class="cls-buildings"
         points="332.45,107.93 351.21,114.04 329.14,181.69 310.4,175.59 "
         id="polygon190"
         transform="matrix(0.23634192,0.72562355,-0.72562355,0.23634192,196.18508,-179.97853)" />
      <rect
         class="cls-buildings"
         x="330.04999"
         y="138.03"
         width="71.300003"
         height="36.619999"
         transform="matrix(0.76314287,1.2145312e-4,-1.2145312e-4,0.76314287,-109.8909,2.9750366)"
         id="rect198" />
      <rect
         style="opacity:0.340548;fill:url(#linearGradient7);fill-opacity:1;stroke:#000000;stroke-width:0;stroke-linejoin:bevel;stroke-opacity:1"
         id="rect1"
         width="5.7133465"
         height="0.7763772"
         x="145.66553"
         y="107.5953" />
      <rect
         style="opacity:0.340548;fill:url(#linearGradient8);fill-opacity:1;stroke:#000000;stroke-width:0;stroke-linejoin:bevel;stroke-opacity:1"
         id="rect7"
         width="4.8904486"
         height="0.7763772"
         x="167.03368"
         y="107.5782" />
      <rect
         style="opacity:0.340548;fill:url(#linearGradient9);fill-opacity:1;stroke:#000000;stroke-width:0;stroke-linejoin:bevel;stroke-opacity:1"
         id="rect8"
         width="5.3844795"
         height="0.7763772"
         x="187.16885"
         y="107.58131" />
      <path
         class="cls-icon"
         d="m 168.25522,118.02608 a 4.7085915,4.7085915 0 1 0 4.7547,4.65432 4.7085915,4.7085915 0 0 0 -4.7547,-4.65432 z m 2.00596,6.54044 a 2.02996,2.02996 0 0 1 -0.49943,0.37206 2.7931029,2.7931029 0 0 1 -0.60785,0.23594 3.1136229,3.1136229 0 0 1 -0.63249,0.0836 2.2894286,2.2894286 0 0 1 -0.99456,-0.20991 2.4954772,2.4954772 0 0 1 -0.76984,-0.57882 2.6481058,2.6481058 0 0 1 -0.7071,-1.76249 2.4649515,2.4649515 0 0 1 0.15763,-0.89475 2.4267943,2.4267943 0 0 1 0.47962,-0.7687 2.5794229,2.5794229 0 0 1 0.75652,-0.58108 2.4725829,2.4725829 0 0 1 1.05061,-0.22575 2.3962686,2.3962686 0 0 1 1.22437,0.28359 1.9536457,1.9536457 0 0 1 0.77185,0.75433 l -0.87809,0.62827 a 1.28208,1.28208 0 0 0 -0.21743,-0.32568 1.4041829,1.4041829 0 0 0 -0.28471,-0.20279 1.3507629,1.3507629 0 0 0 -0.32182,-0.11079 1.5262857,1.5262857 0 0 0 -0.31286,0.004 1.2744486,1.2744486 0 0 0 -0.57846,0.13638 1.3660257,1.3660257 0 0 0 -0.4005,0.34803 1.4118143,1.4118143 0 0 0 -0.23104,0.48347 1.8620686,1.8620686 0 0 0 -0.0701,0.54267 1.7552286,1.7552286 0 0 0 0.0981,0.56364 1.5797057,1.5797057 0 0 0 0.26506,0.4854 1.22866,1.22866 0 0 0 0.41584,0.3234 1.1676086,1.1676086 0 0 0 0.55083,0.11578 1.1294514,1.1294514 0 0 0 0.31286,-0.004 1.1447143,1.1447143 0 0 0 0.31919,-0.11814 1.0302429,1.0302429 0 0 0 0.27226,-0.21682 0.96919144,0.96919144 0 0 0 0.20235,-0.32286 l 0.945,0.54628 a 1.4041829,1.4041829 0 0 1 -0.31533,0.4539 z"
         id="sign_c"
         style="display:inline" />
    </g>
  </g>
</svg>
