<?xml version="1.0" encoding="UTF-8" standalone="no"?>
<svg
   viewBox="0 0 971.78668 720.53333"
   version="1.1"
   id="svg1"
   sodipodi:docname="logo_small.svg"
   inkscape:version="1.3.2 (1:1.3.2+202311252150+091e20ef0f)"
   xmlns:inkscape="http://www.inkscape.org/namespaces/inkscape"
   xmlns:sodipodi="http://sodipodi.sourceforge.net/DTD/sodipodi-0.dtd"
   xmlns="http://www.w3.org/2000/svg"
   xmlns:svg="http://www.w3.org/2000/svg">
  <defs
     id="defs1" />
  <sodipodi:namedview
     id="namedview1"
     pagecolor="#ffffff"
     bordercolor="#000000"
     borderopacity="0.25"
     inkscape:showpageshadow="2"
     inkscape:pageopacity="0.0"
     inkscape:pagecheckerboard="0"
     inkscape:deskcolor="#d1d1d1"
     inkscape:zoom="1.1699667"
     inkscape:cx="485.91126"
     inkscape:cy="360.26666"
     inkscape:window-width="1920"
     inkscape:window-height="1043"
     inkscape:window-x="0"
     inkscape:window-y="0"
     inkscape:window-maximized="1"
     inkscape:current-layer="svg1" />
  <g
     id="g10"
     transform="matrix(1.3333333,0,0,-1.3333333,0,720.53333)"
     style="fill:#ffffff;fill-opacity:1">
    <g
       id="g12"
       transform="scale(0.1)"
       style="fill:#ffffff;fill-opacity:1">
      <path
         d="m 2884.4,1917.65 c 59.24,-177.98 91.28,-382.11 -22.58,-548.01 -91.84,-124.99 -240.08,-178.95 -273.76,-191.21 C 2076,992.051 1931.91,1450.85 1873.67,1589.87 L 1226.26,3368.62 0,2922.3 640.055,1163.77 C 735.695,901 843.594,604.539 1042.14,394.488 1156.71,268.34 1306.83,170.359 1467.35,106.699 c 474.8,-193.449 973.42,-95.8787 1431.57,70.871 444.7,161.86 970.22,437.051 1214.5,876.95 80.2,136.03 200.8,454.6 132.67,872.37 -16.13,76.71 -40.66,160.37 -62.35,228.16 l 1575.25,-818.89 1529.46,556.68 -2181.73,1067.69 869.24,2140.01 -1495.77,-544.41 -560,-1668.8 -916.01,2516.69 -1226.27,-446.32"
         style="fill-opacity:1;fill:#ffffff"
         id="path1" />
    </g>
  </g>
</svg>
